<?xml version="1.0" encoding="utf-8"?>
<svg version="1.1" xmlns:xlink="http://www.w3.org/1999/xlink" width="363px" height="339px" xmlns="http://www.w3.org/2000/svg">
  <g transform="matrix(1 0 0 1 -90 -282 )">
    <path d="M 90 282  L 453 282  L 453 621  L 90 621  L 90 282  " fill-rule="nonzero" fill="#cccccc" stroke="none" />
    <path d="M 114 306  L 429 306  L 429 597  L 114 597  L 114 306  " fill-rule="nonzero" fill="#ffffff" stroke="none" />
    <path d="M 304.185 383.70000000000005  C 289.947 383.70000000000005  278.76 372.51300000000003  278.76 358.27500000000003  C 278.76 344.03700000000003  289.947 332.85  304.185 332.85  C 318.423 332.85  329.61 344.03700000000003  329.61 358.27500000000003  C 329.61 372.51300000000003  318.423 383.70000000000005  304.185 383.70000000000005  " fill-rule="nonzero" fill="#cccccc" stroke="none" />
    <path d="M 123 589  L 123 438.29999999999995  L 197.5 369.79999999999995  L 301.79999999999995 435.4694214876033  L 361.4 410.9  L 421 435.4694214876033  L 421 589  L 123 589  " fill-rule="nonzero" fill="#169bd5" stroke="none" />
  </g>
</svg>